<?xml version="1.0" standalone="no" ?>
<!DOCTYPE svg PUBLIC "-//W3C//DTD SVG 20010904//EN"
  "http://www.w3.org/TR/2001/REC-SVG-20010904/DTD/svg10.dtd">
<svg
  version="1.0"
  xmlns="http://www.w3.org/2000/svg"
  width="256.000000pt"
  height="195.000000pt"
  viewBox="0 0 256.000000 256.000000"
  preserveAspectRatio="xMidYMid meet"
>

<g
    transform="translate(0.000000,256.000000) scale(0.100000,-0.100000)"
    fill="#0e91d8"
    stroke="none"
  >
<path
      d="M800 2520 c-24 -24 -25 -49 -6 -76 14 -18 35 -19 613 -24 l598 -5 55
-26 c70 -33 136 -99 169 -169 l26 -55 5 -898 c5 -875 6 -899 24 -913 27 -19
52 -18 76 6 20 20 20 33 20 892 0 957 0 948 -60 1052 -37 65 -118 146 -179
180 -99 54 -127 56 -748 56 -560 0 -573 0 -593 -20z"
    />
<path
      d="M450 2211 c-69 -21 -130 -73 -166 -141 -18 -33 -19 -77 -19 -950 0
-873 1 -917 19 -950 26 -49 74 -98 121 -123 40 -22 41 -22 755 -22 714 0 715
0 755 22 47 25 95 74 121 123 18 33 19 77 22 830 3 876 3 881 -58 987 -37 65
-114 141 -178 176 -101 55 -125 57 -762 56 -322 0 -596 -4 -610 -8z m1287
-141 c60 -27 138 -103 168 -163 41 -83 39 -87 -57 -87 -141 0 -188 47 -188
188 0 94 3 96 77 62z m-97 -850 c11 -11 20 -29 20 -40 0 -11 -9 -29 -20 -40
-19 -19 -33 -20 -482 -20 -415 0 -463 2 -480 17 -22 20 -23 61 -1 85 15 17 43
18 480 18 450 0 464 -1 483 -20z m0 -300 c11 -11 20 -29 20 -40 0 -11 -9 -29
-20 -40 -19 -19 -33 -20 -482 -20 -415 0 -463 2 -480 17 -22 20 -23 61 -1 85
15 17 43 18 480 18 450 0 464 -1 483 -20z m2 -297 c22 -20 23 -61 1 -85 -15
-17 -43 -18 -480 -18 -450 0 -464 1 -483 20 -11 11 -20 29 -20 40 0 11 9 29
20 40 19 19 33 20 482 20 415 0 463 -2 480 -17z"
    />
</g>
</svg>
